<svg t="1701844135166" class="icon" viewBox="0 0 1024 1024" version="1.1" xmlns="http://www.w3.org/2000/svg" p-id="2135" width="32" height="32"><path d="M896.2 782V447.5c0-212.1-172-384.1-384.1-384.1C300 63.4 128 235.4 128 447.5V782H64.3v146.3h896V782h-64.1z m13.1 96.3h-796V832H178V447.5c0-45.1 8.8-88.9 26.2-130 16.8-39.8 40.9-75.5 71.6-106.2 30.7-30.7 66.4-54.8 106.2-71.6 41.2-17.4 84.9-26.2 130-26.2 45.1 0 88.9 8.8 130 26.2 39.8 16.8 75.5 40.9 106.2 71.6s54.8 66.4 71.6 106.2c17.4 41.2 26.2 84.9 26.2 130V832h63.3v46.3z" fill="#ffffff" p-id="2136"></path><path d="M516.4 821.3L348.6 556.1l-72.4 98.7-40.3-29.6 115.7-157.7 156.2 246.8 173.4-403.9 45.9 19.7z" fill="#ffffff" p-id="2137"></path><path d="M720.6 267.1l-92.9 58.7 128.4 46.4z" fill="#ffffff" p-id="2138"></path></svg>